<svg width="189" height="178" viewBox="0 0 189 178" fill="none" xmlns="http://www.w3.org/2000/svg">
<path d="M34.8837 149.939L33.8509 148.906L34.609 147.786C34.565 147.588 34.4552 147.346 34.2794 147.06C34.1036 146.775 33.8838 146.5 33.6311 146.247C33.2576 145.874 32.884 145.665 32.5105 145.61C32.1369 145.555 31.8403 145.665 31.5876 145.918C31.3569 146.148 31.269 146.456 31.3459 146.819C31.4118 147.181 31.6315 147.709 31.9941 148.401C32.5434 149.368 32.8401 150.225 32.895 150.961C32.939 151.697 32.6863 152.345 32.1259 152.916C31.5436 153.51 30.8405 153.74 30.0384 153.62C29.2364 153.499 28.4453 153.059 27.6872 152.301C27.1379 151.763 26.7314 151.18 26.4677 150.576C26.204 149.972 26.0722 149.357 26.0832 148.763L27.5114 147.324L28.5772 148.39L27.7532 149.51C27.7751 149.763 27.874 150.038 28.0388 150.356C28.2036 150.664 28.4343 150.972 28.731 151.257C29.1045 151.631 29.4781 151.84 29.8297 151.884C30.1813 151.928 30.4889 151.818 30.7416 151.554C31.0053 151.29 31.1261 150.983 31.0932 150.631C31.0602 150.28 30.8844 149.807 30.5548 149.203C29.9725 148.159 29.6319 147.258 29.533 146.522C29.4342 145.786 29.6649 145.127 30.2252 144.566C30.7745 144.006 31.4667 143.786 32.2907 143.907C33.1148 144.028 33.8948 144.435 34.62 145.138C35.1473 145.665 35.5539 146.225 35.8285 146.819C36.1032 147.412 36.257 147.994 36.29 148.555L34.8946 149.961L34.8837 149.939Z" fill="#006937"/>
<path d="M42.6831 156.444L41.5405 155.554L42.1777 154.411C42.1447 154.147 42.0459 153.873 41.892 153.609C41.7272 153.345 41.4965 153.082 41.1779 152.84C40.5077 152.324 39.8155 152.159 39.0794 152.368C38.3433 152.565 37.6731 153.06 37.0578 153.84L36.849 154.103C36.2448 154.884 35.9261 155.653 35.9042 156.422C35.8822 157.191 36.1898 157.828 36.849 158.333C37.1457 158.564 37.4643 158.74 37.7829 158.85C38.1016 158.96 38.3872 158.993 38.6399 158.949L39.5958 158.048L40.7384 158.938L39.5518 160.454C38.9695 160.575 38.3542 160.553 37.706 160.388C37.0578 160.223 36.4425 159.916 35.8493 159.454C34.8275 158.652 34.2561 157.641 34.1573 156.422C34.0584 155.202 34.4429 154.027 35.3109 152.917L35.5086 152.664C36.3766 151.554 37.4094 150.895 38.6289 150.687C39.8375 150.478 40.9582 150.785 41.9909 151.587C42.5842 152.049 43.0347 152.576 43.3423 153.159C43.6499 153.741 43.8257 154.334 43.8587 154.938L42.6721 156.455L42.6831 156.444Z" fill="#006937"/>
<path d="M45.6956 155.894L46.3218 154.905L49.7168 157.059L49.0905 158.048L48.1017 157.663L44.3771 163.552L45.1462 164.277L44.52 165.266L41.125 163.112L41.7513 162.124L42.7401 162.508L46.4646 156.619L45.6956 155.894Z" fill="#006937"/>
<path d="M54.3739 165.683L51.4404 164.21L50.1989 166.693L53.0006 168.1L53.6048 167.1L54.9233 167.77L53.7257 170.143L46.8589 166.693L47.3863 165.65L48.3971 165.935L51.5283 159.706L50.6933 159.057L51.2207 158.014L52.1436 158.475L58.0655 161.453L56.8679 163.826L55.5385 163.156L55.978 162.079L53.1983 160.683L52.0996 162.859L55.0331 164.331L54.3629 165.672L54.3739 165.683Z" fill="#006937"/>
<path d="M69.1845 165.517L68.7999 166.627L67.7562 166.473L65.0314 174.35L63.1966 173.713L61.6255 166.253H61.5816L59.9006 171.12L60.8235 171.648L60.4389 172.746L56.6375 171.428L57.022 170.329L58.0657 170.472L60.34 163.891L59.4281 163.364L59.8127 162.254L60.7905 162.594L62.6363 163.232L64.2074 170.692H64.2514L65.9324 165.825L65.0095 165.297L65.394 164.188L68.2067 165.165L69.1845 165.506V165.517Z" fill="#006937"/>
<path d="M77.7878 170.627L76.3705 170.342L76.4255 169.034C76.2716 168.814 76.0739 168.617 75.8102 168.452C75.5465 168.287 75.2169 168.166 74.8324 168.089C74.0083 167.924 73.3052 168.089 72.7339 168.606C72.1625 169.122 71.789 169.858 71.5912 170.825L71.5253 171.155C71.3275 172.121 71.3935 172.956 71.7121 173.649C72.0307 174.341 72.602 174.769 73.415 174.934C73.7886 175.011 74.1402 175.022 74.4808 174.978C74.8214 174.934 75.0851 174.835 75.2938 174.681L75.7443 173.451L77.1616 173.736L76.777 175.615C76.3046 175.978 75.7443 176.241 75.096 176.384C74.4478 176.527 73.7556 176.527 73.0195 176.384C71.745 176.132 70.7892 175.472 70.1519 174.429C69.5147 173.385 69.3389 172.165 69.6136 170.781L69.6795 170.462C69.9542 169.078 70.5914 168.023 71.5802 167.298C72.5691 166.573 73.7117 166.342 74.9972 166.595C75.7333 166.738 76.3705 167.012 76.9089 167.397C77.4472 167.782 77.8647 168.232 78.1614 168.759L77.7768 170.638L77.7878 170.627Z" fill="#006937"/>
<path d="M86.0624 173.572L82.7883 173.319L82.5795 176.088L85.6998 176.33L85.8756 175.176L87.3478 175.286L87.1501 177.934L79.4922 177.351L79.5801 176.187L80.6239 176.066L81.1512 169.122L80.1404 168.847L80.2283 167.672L81.2611 167.749L87.8752 168.254L87.6774 170.902L86.1832 170.792V169.628L83.0849 169.386L82.8981 171.814L86.1722 172.067L86.0624 173.561V173.572Z" fill="#006937"/>
<path d="M96.5748 177.934L95.6079 178L95.0037 168.43L95.9705 168.364L96.5748 177.934Z" fill="#006937"/>
<path d="M104.079 175.757L105.057 175.361L103.673 168.527H102.618L102.387 167.385L109.957 165.847L110.485 168.451L109.024 168.747L108.705 167.627L105.596 168.253L106.123 170.879L109.452 170.197L109.749 171.67L106.42 172.351L106.947 174.966H108.002L108.232 176.097L104.288 176.899L104.057 175.757H104.079Z" fill="#006937"/>
<path d="M112.165 174.132L112.803 173.825L113.099 164.881L115 164.288L120.318 171.463L121.01 171.353L121.361 172.462L118.208 173.451L117.857 172.341L118.461 172.023L117.659 170.88L114.659 171.825V173.22L115.33 173.133L115.681 174.242L112.528 175.231L112.176 174.121L112.165 174.132ZM114.67 170.331L116.791 169.672L114.725 166.738H114.681L114.659 170.342L114.67 170.331Z" fill="#006937"/>
<path d="M129.327 160.926H129.283L130.118 168.54L128.943 169.122L123.46 163.837L123.427 163.859L125.471 167.595L126.141 168.968L127.163 168.693L127.679 169.737L124.076 171.506L123.559 170.462L124.394 169.825L121.318 163.574L120.307 163.848L119.791 162.793L120.714 162.332L122.988 161.211L128.361 166.54L128.394 166.518L127.471 159.003L130.69 157.421L131.206 158.476L130.36 159.113L133.436 165.364L134.458 165.09L134.975 166.133L131.371 167.913L130.855 166.87L131.69 166.232L131.019 164.859L129.294 160.926H129.327Z" fill="#006937"/>
<path d="M132.635 157.388L131.987 156.411L135.349 154.202L135.997 155.18L135.239 155.916L139.051 161.75L140.029 161.344L140.666 162.321L137.304 164.53L136.667 163.552L137.425 162.816L133.602 156.982L132.624 157.388H132.635Z" fill="#006937"/>
<path d="M142.917 160.794L142.192 159.882L142.873 159.08L138.523 153.631L137.589 154.114L136.853 153.202L137.666 152.554L139.193 151.346L140.006 150.697L140.742 151.609L140.05 152.411L144.313 157.762L146.455 156.048L145.763 155.037L146.928 154.114L148.62 156.235L142.917 160.783V160.794Z" fill="#006937"/>
<path d="M145.841 147.137L145.346 147.774L148.653 149.005L148.686 148.972L147.544 145.632L146.895 146.104L146.071 145.258L148.708 142.698L149.532 143.544L149.038 144.214L150.62 149.631L152.048 151.103L152.938 150.521L153.751 151.356L150.873 154.158L150.06 153.323L150.664 152.455L149.17 150.916L143.907 149.224L143.226 149.697L142.402 148.851L145.039 146.291L145.863 147.137H145.841Z" fill="#006937"/>
<path d="M110.286 26.9072C110.286 26.9072 110.319 26.9072 110.351 26.9181C110.384 26.9181 110.417 26.9291 110.439 26.9401C110.461 26.9511 110.472 26.9621 110.472 26.9841C110.472 27.006 110.472 27.028 110.45 27.039C110.428 27.05 110.384 27.061 110.308 27.072L107.528 27.6653L108.44 30.2801C108.44 30.2801 108.44 30.3021 108.462 30.3461C108.473 30.39 108.484 30.423 108.484 30.434C108.484 30.4669 108.462 30.4889 108.418 30.4889C108.407 30.4889 108.396 30.4889 108.385 30.4779C108.374 30.4669 108.363 30.4559 108.341 30.423C108.319 30.39 108.308 30.379 108.308 30.379L106.451 28.2256L104.638 30.2911C104.638 30.2911 104.616 30.3241 104.594 30.3461C104.572 30.368 104.561 30.39 104.539 30.412C104.517 30.434 104.506 30.4449 104.484 30.4449C104.452 30.4449 104.43 30.423 104.43 30.39C104.43 30.368 104.441 30.3351 104.452 30.3021C104.463 30.2691 104.473 30.2472 104.473 30.2472L105.341 27.6653L102.628 27.1049C102.628 27.1049 102.606 27.1049 102.562 27.0939C102.518 27.0829 102.485 27.072 102.463 27.061C102.441 27.05 102.43 27.028 102.43 27.006C102.43 26.9841 102.43 26.9621 102.452 26.9511C102.474 26.9401 102.496 26.9291 102.529 26.9181C102.562 26.9072 102.584 26.9072 102.584 26.9072L105.33 26.3358L104.463 23.7869C104.43 23.677 104.408 23.6221 104.408 23.6221C104.408 23.5781 104.43 23.5562 104.463 23.5562C104.474 23.5562 104.495 23.5562 104.506 23.5781C104.517 23.5891 104.528 23.6111 104.55 23.6331C104.572 23.655 104.583 23.677 104.583 23.677L106.429 25.7645L108.264 23.6331C108.264 23.6331 108.308 23.5781 108.33 23.5452C108.352 23.5122 108.385 23.4902 108.396 23.4902C108.44 23.4902 108.462 23.5122 108.462 23.5452C108.462 23.5452 108.462 23.5671 108.44 23.6111C108.429 23.655 108.418 23.677 108.418 23.688L107.506 26.3249L110.275 26.8962L110.286 26.9072Z" fill="#006937"/>
<path d="M78.05 26.9072C78.05 26.9072 78.0829 26.9072 78.1159 26.9181C78.1488 26.9181 78.1818 26.9291 78.2038 26.9401C78.2258 26.9511 78.2367 26.9621 78.2367 26.9841C78.2367 27.006 78.2367 27.028 78.2148 27.039C78.1928 27.05 78.1488 27.061 78.0719 27.072L75.2923 27.6653L76.2042 30.2801C76.2042 30.2801 76.2042 30.3021 76.2261 30.3461C76.2371 30.39 76.2481 30.423 76.2481 30.434C76.2481 30.4669 76.2261 30.4889 76.1822 30.4889C76.1712 30.4889 76.1602 30.4889 76.1492 30.4779C76.1382 30.4669 76.1273 30.4559 76.1053 30.423C76.0833 30.39 76.0723 30.379 76.0723 30.379L74.2155 28.2256L72.4027 30.2911C72.4027 30.2911 72.3807 30.3241 72.3588 30.3461C72.3368 30.368 72.3258 30.39 72.3038 30.412C72.2818 30.434 72.2709 30.4449 72.2489 30.4449C72.2159 30.4449 72.1939 30.423 72.1939 30.39C72.1939 30.368 72.2049 30.3351 72.2159 30.3021C72.2269 30.2691 72.2379 30.2472 72.2379 30.2472L73.1059 27.6653L70.3921 27.1049C70.3921 27.1049 70.3701 27.1049 70.3262 27.0939C70.2822 27.0829 70.2493 27.072 70.2273 27.061C70.2053 27.05 70.1943 27.028 70.1943 27.006C70.1943 26.9841 70.1943 26.9621 70.2163 26.9511C70.2383 26.9401 70.2603 26.9291 70.2932 26.9181C70.3262 26.9072 70.3482 26.9072 70.3482 26.9072L73.0949 26.3358L72.2269 23.7869C72.194 23.677 72.172 23.6221 72.172 23.6221C72.172 23.5781 72.194 23.5562 72.2269 23.5562C72.2379 23.5562 72.2599 23.5562 72.2709 23.5781C72.2818 23.5891 72.2928 23.6111 72.3148 23.6331C72.3368 23.655 72.3478 23.677 72.3478 23.677L74.1936 25.7645L76.0284 23.6331C76.0284 23.6331 76.0723 23.5781 76.0943 23.5452C76.1163 23.5122 76.1492 23.4902 76.1602 23.4902C76.2042 23.4902 76.2261 23.5122 76.2261 23.5452C76.2261 23.5452 76.2261 23.5671 76.2042 23.6111C76.1932 23.655 76.1822 23.677 76.1822 23.688L75.2703 26.3249L78.039 26.8962L78.05 26.9072Z" fill="#006937"/>
<path d="M90.1783 16.8001C90.1783 16.8001 90.1893 16.7451 90.2002 16.6902C90.2002 16.6353 90.2222 16.5913 90.2332 16.5474C90.2442 16.5034 90.2772 16.4814 90.2991 16.4814C90.3431 16.4814 90.376 16.4924 90.398 16.5254C90.42 16.5584 90.431 16.6353 90.453 16.7671L91.4637 21.5244L95.9354 19.9753C95.9354 19.9753 95.9794 19.9643 96.0563 19.9313C96.1332 19.9094 96.1771 19.8874 96.1991 19.8874C96.265 19.8874 96.298 19.9313 96.298 20.0082C96.298 20.0302 96.298 20.0522 96.276 20.0742C96.254 20.0961 96.2321 20.1181 96.1881 20.1401C96.1442 20.1621 96.1222 20.184 96.1112 20.206L92.4416 23.3812L95.9794 26.4795C95.9794 26.4795 96.0233 26.5235 96.0673 26.5454C96.1112 26.5674 96.1442 26.6114 96.1771 26.6333C96.2101 26.6553 96.2321 26.6993 96.2321 26.7212C96.2321 26.7872 96.1991 26.8091 96.1442 26.8091C96.1002 26.8091 96.0453 26.7872 95.9903 26.7652C95.9354 26.7432 95.9025 26.7322 95.8915 26.7322L91.4747 25.26L90.5189 29.8855C90.5189 29.8855 90.5189 29.9294 90.4969 30.0063C90.4749 30.0832 90.4639 30.1382 90.442 30.1711C90.42 30.2041 90.387 30.2261 90.3431 30.2261C90.2991 30.2261 90.2662 30.2151 90.2442 30.1821C90.2222 30.1491 90.2112 30.1052 90.1893 30.0393C90.1673 29.9734 90.1673 29.9404 90.1673 29.9404L89.1895 25.26L84.8277 26.7322C84.6409 26.7981 84.542 26.8201 84.542 26.8201C84.4651 26.8201 84.4211 26.7872 84.4211 26.7322C84.4211 26.6993 84.4321 26.6773 84.4541 26.6553C84.4761 26.6333 84.509 26.6114 84.553 26.5784C84.5969 26.5454 84.6189 26.5235 84.6299 26.5125L88.2006 23.3592L84.553 20.228C84.553 20.228 84.4651 20.1621 84.4102 20.1071C84.3552 20.0522 84.3223 20.0192 84.3223 19.9973C84.3223 19.9753 84.3552 19.8764 84.4102 19.8764C84.4102 19.8764 84.4541 19.8874 84.531 19.9203C84.6079 19.9423 84.6519 19.9643 84.6629 19.9643L89.1785 21.5134L90.1563 16.7891L90.1783 16.8001Z" fill="#006937"/>
<path d="M70.3809 150.805C70.3809 150.805 70.3479 150.805 70.3149 150.794C70.282 150.794 70.249 150.783 70.2271 150.772C70.2051 150.761 70.1941 150.75 70.1941 150.728C70.1941 150.706 70.1941 150.685 70.2161 150.674C70.238 150.663 70.282 150.652 70.3589 150.641L73.1386 150.047L72.2267 147.432C72.2267 147.432 72.2267 147.41 72.2047 147.366C72.1937 147.323 72.1827 147.29 72.1827 147.279C72.1827 147.246 72.2047 147.224 72.2486 147.224C72.2596 147.224 72.2706 147.224 72.2816 147.235C72.2926 147.246 72.3036 147.257 72.3256 147.29C72.3475 147.323 72.3585 147.333 72.3585 147.333L74.2153 149.487L76.0281 147.421C76.0281 147.421 76.0501 147.388 76.0721 147.366C76.0941 147.344 76.105 147.323 76.127 147.301C76.149 147.279 76.16 147.268 76.1819 147.268C76.2149 147.268 76.2369 147.29 76.2369 147.323C76.2369 147.344 76.2259 147.377 76.2149 147.41C76.2039 147.443 76.1929 147.465 76.1929 147.465L75.325 150.047L78.0387 150.608C78.0387 150.608 78.0607 150.608 78.1047 150.619C78.1486 150.63 78.1816 150.641 78.2035 150.652C78.2255 150.663 78.2365 150.685 78.2365 150.706C78.2365 150.728 78.2365 150.75 78.2145 150.761C78.1926 150.772 78.1706 150.783 78.1376 150.794C78.1047 150.805 78.0827 150.805 78.0827 150.805L75.336 151.377L76.2039 153.926C76.2369 154.036 76.2589 154.09 76.2589 154.09C76.2589 154.134 76.2369 154.156 76.2039 154.156C76.1929 154.156 76.171 154.156 76.16 154.134C76.149 154.123 76.138 154.101 76.116 154.079C76.0941 154.057 76.0831 154.036 76.0831 154.036L74.2373 151.948L72.4025 154.079C72.4025 154.079 72.3585 154.134 72.3365 154.167C72.3146 154.2 72.2816 154.222 72.2706 154.222C72.2267 154.222 72.2047 154.2 72.2047 154.167C72.2047 154.167 72.2047 154.145 72.2267 154.101C72.2377 154.057 72.2486 154.035 72.2486 154.025L73.1606 151.388L70.3918 150.816L70.3809 150.805Z" fill="#006937"/>
<path d="M102.616 150.805C102.616 150.805 102.583 150.805 102.55 150.794C102.517 150.794 102.484 150.783 102.462 150.772C102.44 150.761 102.429 150.75 102.429 150.728C102.429 150.706 102.429 150.685 102.451 150.674C102.473 150.663 102.517 150.652 102.594 150.641L105.374 150.047L104.462 147.432C104.462 147.432 104.462 147.41 104.44 147.366C104.429 147.323 104.418 147.29 104.418 147.279C104.418 147.246 104.44 147.224 104.484 147.224C104.495 147.224 104.506 147.224 104.517 147.235C104.528 147.246 104.539 147.257 104.561 147.29C104.583 147.323 104.594 147.333 104.594 147.333L106.451 149.487L108.263 147.421C108.263 147.421 108.285 147.388 108.307 147.366C108.329 147.344 108.34 147.323 108.362 147.301C108.384 147.279 108.395 147.268 108.417 147.268C108.45 147.268 108.472 147.29 108.472 147.323C108.472 147.344 108.461 147.377 108.45 147.41C108.439 147.443 108.428 147.465 108.428 147.465L107.56 150.047L110.274 150.608C110.274 150.608 110.296 150.608 110.34 150.619C110.384 150.63 110.417 150.641 110.439 150.652C110.461 150.663 110.472 150.685 110.472 150.706C110.472 150.728 110.472 150.75 110.45 150.761C110.428 150.772 110.406 150.783 110.373 150.794C110.34 150.805 110.318 150.805 110.318 150.805L107.571 151.377L108.439 153.926C108.472 154.036 108.494 154.09 108.494 154.09C108.494 154.134 108.472 154.156 108.439 154.156C108.428 154.156 108.406 154.156 108.395 154.134C108.384 154.123 108.373 154.101 108.351 154.079C108.329 154.057 108.318 154.036 108.318 154.036L106.473 151.948L104.638 154.079C104.638 154.079 104.594 154.134 104.572 154.167C104.55 154.2 104.517 154.222 104.506 154.222C104.462 154.222 104.44 154.2 104.44 154.167C104.44 154.167 104.44 154.145 104.462 154.101C104.473 154.057 104.484 154.035 104.484 154.025L105.396 151.388L102.627 150.816L102.616 150.805Z" fill="#006937"/>
<path d="M90.4869 160.913C90.4869 160.913 90.4759 160.968 90.4649 161.023C90.4649 161.078 90.4429 161.122 90.432 161.166C90.421 161.21 90.388 161.232 90.366 161.232C90.3221 161.232 90.2891 161.221 90.2672 161.188C90.2452 161.155 90.2342 161.078 90.2122 160.946L89.2014 156.189L84.7298 157.738C84.7298 157.738 84.6858 157.749 84.6089 157.782C84.532 157.804 84.4881 157.826 84.4661 157.826C84.4002 157.826 84.3672 157.782 84.3672 157.705C84.3672 157.683 84.3672 157.661 84.3892 157.639C84.4111 157.617 84.4331 157.595 84.4771 157.573C84.521 157.551 84.543 157.529 84.554 157.507L88.2236 154.332L84.6858 151.234C84.6858 151.234 84.6419 151.19 84.5979 151.168C84.554 151.146 84.521 151.102 84.488 151.08C84.4551 151.058 84.4331 151.014 84.4331 150.992C84.4331 150.926 84.4661 150.904 84.521 150.904C84.565 150.904 84.6199 150.926 84.6748 150.948C84.7298 150.97 84.7627 150.981 84.7737 150.981L89.1904 152.453L90.1463 147.828C90.1463 147.828 90.1463 147.784 90.1683 147.707C90.1902 147.63 90.2012 147.575 90.2232 147.542C90.2452 147.509 90.2781 147.487 90.3221 147.487C90.366 147.487 90.399 147.498 90.421 147.531C90.443 147.564 90.4539 147.608 90.4759 147.674C90.4979 147.74 90.4979 147.773 90.4979 147.773L91.4757 152.453L95.8375 150.981C96.0243 150.915 96.1232 150.893 96.1232 150.893C96.2001 150.893 96.244 150.926 96.244 150.981C96.244 151.014 96.233 151.036 96.2111 151.058C96.1891 151.08 96.1561 151.102 96.1122 151.135C96.0682 151.168 96.0463 151.19 96.0353 151.201L92.4645 154.354L96.1122 157.485C96.1122 157.485 96.2001 157.551 96.255 157.606C96.31 157.661 96.3429 157.694 96.3429 157.716C96.3429 157.738 96.31 157.837 96.255 157.837C96.255 157.837 96.2111 157.826 96.1342 157.793C96.0573 157.771 96.0133 157.749 96.0023 157.749L91.4867 156.2L90.5089 160.924L90.4869 160.913Z" fill="#006937"/>
<path d="M15.4037 41.1021L16.3815 41.7393L15.975 42.7171L20.2159 45.4968C20.7543 45.8484 21.2487 45.9693 21.6992 45.8484C22.1496 45.7275 22.5452 45.4309 22.8748 44.9255C23.2044 44.4201 23.3362 43.9257 23.2593 43.4642C23.1824 43.0028 22.8748 42.5963 22.3364 42.2447L18.0955 39.465L17.3594 40.2231L16.3815 39.5749L18.5789 36.2129L19.5567 36.8501L19.1502 37.828L23.3912 40.6076C24.3031 41.2009 24.8085 41.959 24.9073 42.8929C25.0062 43.8158 24.7425 44.7717 24.1053 45.7385C23.4681 46.7054 22.71 47.3316 21.82 47.6063C20.9301 47.881 20.0402 47.7162 19.1282 47.1229L14.8873 44.3432L14.1512 45.1013L13.1733 44.4531L13.7447 43.5851L14.8104 41.959L15.3817 41.0911L15.4037 41.1021Z" fill="#006937"/>
<path d="M26.8314 26.5557L27.7104 27.3247L27.172 28.2367L33.4345 33.7411L32.1491 35.2023L24.656 33.829L24.634 33.8619L28.5124 37.2679L29.3474 36.6197L30.2263 37.3887L27.5675 40.4101L26.6886 39.6411L27.2159 38.7291L21.9862 34.1256L21.1512 34.7739L20.2722 34.0048L20.9534 33.2247L22.2389 31.7635L29.7319 33.1368L29.7539 33.1039L25.8865 29.6979L25.0515 30.3461L24.1726 29.5771L26.1392 27.3357L26.8314 26.5557Z" fill="#006937"/>
<path d="M37.6733 20.4252L37.6403 20.4472L40.2332 27.6326L39.2334 28.4677L32.6633 24.6113L32.6413 24.6442L35.5089 27.7975L36.4867 28.9731L37.4096 28.4567L38.1567 29.3576L35.0694 31.9285L34.3223 31.0276L34.9925 30.2146L30.5318 24.853L29.6089 25.3584L28.8618 24.4574L29.6529 23.7982L31.6085 22.1722L38.0908 26.0945L38.1238 26.0725L35.4649 18.975L38.2226 16.6787L38.9698 17.5796L38.2996 18.4037L42.7602 23.7653L43.6831 23.2489L44.4303 24.1498L41.3429 26.7207L40.5958 25.8198L41.266 25.0068L40.2882 23.8312L37.6953 20.4143L37.6733 20.4252Z" fill="#006937"/>
<path d="M45.0032 22.4563L45.5416 22.0169L43.7178 13.2603L45.4317 12.2275L52.2985 17.9517L52.9468 17.677L53.5511 18.6768L50.7164 20.3798L50.1122 19.38L50.6285 18.9295L49.5738 18.0066L46.882 19.6327L47.2006 20.9951L47.8379 20.7534L48.4421 21.7532L45.6075 23.4561L45.0032 22.4563ZM46.5304 18.1715L48.4421 17.0288L45.7394 14.6666L45.7064 14.6886L46.5304 18.1824V18.1715Z" fill="#006937"/>
<path d="M57.9001 6.06445L58.9548 8.42664L57.5924 9.0419L57.076 8.08604L55.45 8.82216L58.2517 15.0627L59.2844 14.821L59.7569 15.8867L56.0872 17.5348L55.6148 16.469L56.4828 15.8648L53.6811 9.62421L52.055 10.3493L52.4286 11.3711L51.0772 11.9754L50.0225 9.61322L57.922 6.06445H57.9001Z" fill="#006937"/>
<path d="M68.8425 5.97653L67.4582 6.40502L66.8869 5.22942C66.6451 5.09758 66.3705 5.03166 66.0628 5.00968C65.7552 4.98771 65.4036 5.03166 65.0301 5.15251C64.228 5.40521 63.6897 5.88864 63.437 6.60278C63.1843 7.31693 63.1952 8.15194 63.4919 9.09681L63.5908 9.42642C63.8764 10.3713 64.3379 11.0744 64.9532 11.5249C65.5684 11.9864 66.2716 12.0852 67.0626 11.8435C67.4252 11.7337 67.7438 11.5798 68.0185 11.3711C68.2932 11.1733 68.4799 10.9536 68.5898 10.7229L68.403 9.42642L69.7874 8.99793L70.3477 10.8327C70.106 11.3821 69.7325 11.8765 69.2381 12.305C68.7327 12.7445 68.1284 13.0741 67.4142 13.2938C66.1727 13.6783 65.0191 13.5575 63.9533 12.9422C62.8876 12.327 62.1515 11.3381 61.745 9.98675L61.6461 9.67911C61.2286 8.32773 61.2835 7.10818 61.8109 5.9985C62.3383 4.88883 63.2282 4.14172 64.4807 3.75718C65.1949 3.53744 65.887 3.47152 66.5462 3.54843C67.2055 3.63632 67.7878 3.83409 68.2932 4.14172L68.8535 5.97653H68.8425Z" fill="#006937"/>
<path d="M71.0625 3.24062L70.8757 2.087L74.842 1.42778L75.0288 2.58141L74.04 2.94398L74.4904 5.71268L78.4018 5.06445L77.9513 2.29575L76.8966 2.26279L76.7098 1.10916L77.7316 0.944361L79.6433 0.625741L80.6651 0.460938L80.8518 1.61456L79.863 1.97713L80.9947 8.85493L82.0494 8.88789L82.2362 10.0415L78.2699 10.6897L78.0831 9.53612L79.072 9.17355L78.6325 6.53669L74.7211 7.18492L75.1496 9.82178L76.2044 9.85474L76.3912 11.0084L72.4249 11.6566L72.2381 10.503L73.2269 10.1404L72.0953 3.2626L71.0405 3.22964L71.0625 3.24062Z" fill="#006937"/>
<path d="M89.9835 5.49345L86.6984 5.59233L86.7863 8.36103L89.9176 8.26215L89.9725 7.09754L91.4557 7.05359L91.5326 9.70143L83.8528 9.94314L83.8198 8.77853L84.8416 8.54781L84.6219 1.58211L83.5781 1.41731L83.5452 0.241712L84.5779 0.208751L91.214 0L91.2909 2.65883L89.7967 2.70278L89.6759 1.54915L86.5666 1.64804L86.6435 4.08713L89.9286 3.98824L89.9725 5.48246L89.9835 5.49345Z" fill="#006937"/>
<path d="M98.7498 0.4717C99.9364 0.581569 100.87 1.05401 101.562 1.87802C102.255 2.70204 102.551 3.71283 102.441 4.88843L102.288 6.49252C102.178 7.6791 101.705 8.61299 100.87 9.29418C100.035 9.97537 99.0245 10.261 97.8379 10.1402L93.4871 9.73365L93.5969 8.56904L94.6407 8.47016L95.2889 1.53743L94.2781 1.24078L94.388 0.0761719L95.4207 0.175054L98.7388 0.482687L98.7498 0.4717ZM97.2336 1.83408L96.6073 8.5251L97.8928 8.64595C98.585 8.71187 99.1563 8.5251 99.5958 8.09661C100.035 7.66812 100.288 7.07482 100.354 6.31673L100.508 4.70166C100.574 3.95455 100.442 3.32829 100.09 2.8229C99.7386 2.3175 99.2222 2.03184 98.5191 1.96592L97.2336 1.84506V1.83408Z" fill="#006937"/>
<path d="M118.064 9.56991C117.833 10.3829 117.471 11.0751 116.976 11.6684C116.493 12.2507 115.922 12.6792 115.274 12.9539L116.9 14.7667L115.284 15.4039L113.483 13.2505C113.307 13.2395 113.131 13.2176 112.955 13.1846C112.779 13.1516 112.615 13.1187 112.439 13.0747C111.175 12.7122 110.296 11.965 109.78 10.8444C109.264 9.72372 109.209 8.4822 109.604 7.11983L109.648 6.977C110.044 5.61462 110.758 4.60383 111.791 3.93363C112.823 3.26343 113.966 3.10961 115.23 3.47218C116.493 3.83474 117.383 4.58185 117.91 5.7135C118.438 6.83417 118.493 8.07569 118.097 9.43806L118.053 9.58089L118.064 9.56991ZM116.251 8.87773C116.537 7.91088 116.559 7.07588 116.328 6.35074C116.098 5.6366 115.592 5.16416 114.812 4.93343C114.032 4.70271 113.351 4.83455 112.79 5.31798C112.23 5.8014 111.813 6.53752 111.527 7.50437L111.483 7.65819C111.197 8.63602 111.164 9.493 111.384 10.1962C111.604 10.8993 112.098 11.3827 112.878 11.6025C113.669 11.8332 114.351 11.7014 114.922 11.2179C115.493 10.7345 115.922 9.99839 116.207 9.02056L116.251 8.86674V8.87773Z" fill="#006937"/>
<path d="M125.791 7.42684L125.307 8.49257L124.274 8.25086L122.209 12.8763C121.945 13.4587 121.912 13.964 122.099 14.4035C122.286 14.832 122.648 15.1726 123.198 15.4143C123.758 15.667 124.252 15.711 124.703 15.5681C125.142 15.4253 125.505 15.0518 125.769 14.4694L127.834 9.84396L126.977 9.23968L127.461 8.17395L131.13 9.811L130.647 10.8877L129.614 10.646L127.548 15.2715C127.109 16.2603 126.428 16.8866 125.538 17.1283C124.648 17.37 123.659 17.2601 122.593 16.7877C121.539 16.3152 120.802 15.667 120.385 14.832C119.978 13.997 119.989 13.0851 120.44 12.0963L122.505 7.47079L121.648 6.86651L122.132 5.80078L123.077 6.21828L124.857 7.00934L125.801 7.43783L125.791 7.42684Z" fill="#006937"/>
<path d="M128.371 18.0298L129.019 18.3045L135.952 12.6572L137.655 13.701L135.743 22.4356L136.281 22.886L135.666 23.8748L132.843 22.1499L133.458 21.1611L134.095 21.4138L134.425 20.0514L131.744 18.4034L130.678 19.3153L131.195 19.7657L130.579 20.7656L127.756 19.0296L128.371 18.0408V18.0298ZM132.886 17.4036L134.787 18.5682L135.644 15.0743L135.611 15.0524L132.886 17.3926V17.4036Z" fill="#006937"/>
<path d="M136.886 24.8085L137.611 23.8966L138.545 24.391L142.896 18.9415L142.215 18.1395L142.951 17.2275L143.764 17.8758L145.28 19.0953L146.093 19.7435L145.357 20.6555L144.423 20.161L140.149 25.5117L142.292 27.2256L143.127 26.3357L144.291 27.2586L142.599 29.379L136.897 24.8195L136.886 24.8085Z" fill="#006937"/>
<path d="M149.783 24.4349L150.596 23.5889L153.486 26.3795L152.673 27.2255L151.783 26.6432L146.948 31.6642L147.553 32.5322L146.74 33.3672L143.85 30.5765L144.663 29.7415L145.553 30.3238L150.387 25.3028L149.772 24.4349H149.783Z" fill="#006937"/>
<path d="M160.968 34.8172L158.991 36.4872L158.024 35.3446L158.804 34.5865L157.65 33.2241L152.432 37.6519L152.948 38.5748L152.058 39.3329L149.454 36.2565L150.344 35.4984L151.168 36.1576L156.387 31.7299L155.233 30.3675L154.354 31.0048L153.387 29.8731L155.365 28.2031L160.968 34.8062V34.8172Z" fill="#006937"/>
<path d="M163.627 40.7402L163.099 40.1359L161.243 43.1353L161.265 43.1683L164.759 42.6958L164.429 41.9707L165.418 41.3335L167.417 44.4208L166.429 45.058L165.868 44.4318L160.243 44.9262L158.529 46.0359L158.924 47.0137L157.947 47.6509L155.76 44.278L156.738 43.6407L157.474 44.4098L159.276 43.2452L161.968 38.411L161.638 37.6529L162.627 37.0156L164.627 40.1029L163.638 40.7402H163.627Z" fill="#006937"/>
<path d="M37.002 126.513H36.189C43.2096 137.368 53.6581 146.168 67.5346 150.926C67.5346 150.816 67.5016 150.706 67.5016 150.596C67.5016 150.464 67.5346 150.343 67.5346 150.211C54.0756 145.553 43.9127 137.027 37.002 126.524V126.513Z" fill="#006937"/>
<path d="M39.6834 47.4732C46.4513 38.7057 55.7243 31.6301 67.5352 27.532C67.5352 27.4002 67.4912 27.2683 67.4912 27.1255C67.4912 27.0156 67.5132 26.9058 67.5242 26.7959C55.2848 30.9819 45.7152 38.3321 38.8044 47.4623H39.6834V47.4732Z" fill="#006937"/>
<path d="M0.0100098 84.0957V85.3152L76.314 85.3702L75.4131 84.0957H0.0100098Z" fill="#006937"/>
<path d="M94.8928 85.4791H180.646V84.1277L95.7278 84.0508L94.8928 85.4791Z" fill="#006937"/>
<path d="M0.0109809 62.0989L6.32845 62.1428L6.35042 65.7905L9.00925 62.0439C9.00925 62.0439 15.9749 62.0439 16.4474 62.0439C17.2275 62.0549 18.0405 62.2966 18.7986 62.8899C19.5457 63.4722 19.7874 64.2194 19.8314 65.0434C19.8094 64.6588 19.8314 81.5457 19.8314 81.5457H13.2172V68.713C13.2172 68.713 13.3381 67.7901 12.6899 67.2627C12.1076 66.7903 11.6571 66.8232 11.2176 66.8232H6.38338V81.4908H0V62.0989H0.0109809Z" fill="#006937"/>
<path d="M41.8939 81.7991H35.5105L35.5544 78.1075L32.8956 81.854C32.8956 81.854 25.9299 81.854 25.4574 81.854C24.6884 81.843 23.8644 81.6013 23.0953 81.008C22.3482 80.4257 22.1284 79.6786 22.0625 78.8546C22.0845 79.2392 22.0625 62.3633 22.0625 62.3633H28.6766V75.196C28.6766 75.196 28.5558 76.1189 29.204 76.6462C29.7863 77.1187 30.2258 77.0857 30.6762 77.0857H35.5105V62.4182H41.8939V81.8101V81.7991Z" fill="#006937"/>
<path d="M112.122 62.4062H105.728V81.7981H112.122V62.4062Z" fill="#006937"/>
<path d="M123.813 66.394L127.174 62.3288C127.174 62.3288 132.756 62.2409 133.228 62.2519C133.997 62.2629 134.821 62.5046 135.579 63.0979C136.338 63.6802 136.568 64.4273 136.612 65.2513C136.59 64.8558 136.612 81.7427 136.612 81.7427H129.998V68.91C129.998 68.91 130.119 67.9871 129.471 67.4597C128.888 66.9873 128.449 67.0202 127.999 67.0202C127.548 67.0202 123.758 67.0202 123.758 67.0202L123.802 66.394H123.813Z" fill="#006937"/>
<path d="M43.783 62.3184H64.2845L61.0654 67.3833H56.1762V81.7652H49.5621V67.3833H43.783V62.3184Z" fill="#006937"/>
<path d="M159.508 62.209H166.397L169.121 66.2631L171.956 62.209H178.9L172.681 71.5478L179.57 81.6558H172.626L169.176 76.6568L165.891 81.6558H158.849L165.682 71.4929L159.508 62.209Z" fill="#006937"/>
<path d="M92.3449 73.9537C91.8395 74.0087 91.411 74.4921 91.411 75.1843C91.411 75.8764 91.4769 76.5137 92.224 76.7444C92.8723 76.9422 97.1022 76.7883 97.1022 76.7883V73.8988C97.1022 73.8988 92.8942 73.8878 92.3449 73.9427M86.4889 67.4495L89.3784 62.3955H99.1018C99.827 62.3955 101.64 62.6482 102.475 63.648C103.31 64.6478 103.661 65.5048 103.661 66.3947V81.7874H97.3879L97.3659 78.8209L94.9927 81.7764C94.9927 81.7764 90.7738 81.8203 90.0596 81.7874C88.7851 81.7325 85.4012 81.0732 85.2803 77.063C85.1595 73.0198 85.7088 72.1079 87.203 70.9763C87.9941 70.383 89.2356 70.1193 90.4991 70.1193C92.5646 70.0973 96.3881 70.1193 96.3881 70.1193C96.3881 70.1193 97.5966 69.8996 97.4868 68.7349C97.4648 68.4603 97.4977 67.4385 96.6188 67.4605C95.6959 67.4715 86.4999 67.4605 86.4999 67.4605" fill="#006937"/>
<path d="M71.4149 67.1751V72.8443C71.4149 72.8443 75.6668 72.8443 76.4359 72.8443C77.194 72.8223 78.3366 72.8004 78.4245 70.0207C78.4575 68.933 78.2158 67.219 76.5458 67.1751C75.6998 67.1531 71.4149 67.1751 71.4149 67.1751ZM65.0205 81.7657V62.3848C65.0205 62.3848 76.9743 62.3079 79.3914 62.3848C82.7204 62.4727 84.3794 66.4499 84.4454 69.779C84.5003 72.6246 83.5994 74.2726 82.3468 75.5141C81.5118 76.3381 80.2374 77.294 80.2374 77.294L86.1263 86.0725L87.4558 84.0729H93.5645L89.3455 91.6319L94.6302 99.9929H87.9392L86.2472 97.411L84.698 99.971H77.4687L82.5776 91.9725L71.4588 74.6352L71.4259 81.7876H65.0095L65.0205 81.7657Z" fill="#006937"/>
<path d="M111.649 66.4391L114.935 62.4949C114.935 62.4949 120.505 62.407 120.988 62.4179C121.757 62.4399 122.581 62.6816 123.339 63.2639C124.087 63.8462 124.317 64.5933 124.372 65.4174C124.339 65.0328 124.372 81.9197 124.372 81.9197H117.758V69.087C117.758 69.087 117.879 68.1641 117.231 67.6367C116.648 67.1643 116.209 67.1863 115.759 67.1863C114.726 67.1863 111.518 67.1423 111.518 67.1423L111.638 66.4282L111.649 66.4391Z" fill="#006937"/>
<path d="M145.687 73.8983C145.182 73.9532 144.753 74.4367 144.753 75.1288C144.753 75.821 144.819 76.4583 145.566 76.689C146.215 76.8867 150.444 76.7329 150.444 76.7329V73.8434C150.444 73.8434 146.237 73.8324 145.687 73.8983ZM139.831 67.3831L142.721 62.3291H152.444C153.169 62.3291 154.982 62.5818 155.817 63.5816C156.652 64.5814 157.004 65.4384 157.004 66.3283V81.721H150.73L150.708 78.7545L148.335 81.71C148.335 81.71 144.116 81.7539 143.391 81.71C142.116 81.6551 138.743 80.9958 138.623 76.9856C138.502 72.9424 139.051 72.0305 140.545 70.9099C141.336 70.3166 142.578 70.0529 143.841 70.0529C145.907 70.0419 149.73 70.0529 149.73 70.0529C149.73 70.0529 150.939 69.8222 150.829 68.6685C150.807 68.3939 150.829 67.3721 149.95 67.3941C149.038 67.405 139.842 67.3941 139.842 67.3941" fill="#006937"/>
<path d="M180.658 58.5498H0.0227051V59.9012H180.658V58.5498Z" fill="#006937"/>
<path d="M96.3894 99.9707V90.9834H97.9056V98.4874H100.608V99.9707H96.3894Z" fill="#006937"/>
<path d="M102.947 96.5867H104.419L103.694 92.5435H103.672L102.947 96.5867ZM102.749 90.9834H104.628L106.627 99.9707H105.034L104.683 98.0699H102.672L102.32 99.9707H100.727L102.727 90.9834H102.749Z" fill="#006937"/>
<path d="M108.66 98.6415H109.253C109.989 98.6415 110.484 98.3229 110.484 97.2791C110.484 96.2354 109.989 95.9277 109.319 95.9277H108.66V98.6415ZM108.66 94.6752H109.099C109.934 94.6752 110.308 94.3346 110.308 93.4887C110.308 92.6427 109.956 92.3131 109.209 92.3131H108.649V94.6643L108.66 94.6752ZM107.144 90.9836H109.693C110.934 90.9836 111.835 91.544 111.835 93.2579C111.835 94.2358 111.44 94.9719 110.693 95.2246V95.2466C111.528 95.3784 112.066 96.1365 112.066 97.3341C112.066 98.7404 111.484 99.9599 109.715 99.9599H107.144V90.9727V90.9836Z" fill="#006937"/>
<path d="M115.43 98.8171C116.32 98.8171 116.474 97.9052 116.474 95.477C116.474 93.0489 116.32 92.137 115.43 92.137C114.54 92.137 114.387 93.0709 114.387 95.477C114.387 97.8832 114.529 98.8171 115.43 98.8171ZM115.43 90.8076C117.716 90.8076 117.99 92.7413 117.99 95.477C117.99 98.2128 117.705 100.146 115.43 100.146C113.156 100.146 112.859 98.2128 112.859 95.477C112.859 92.7413 113.145 90.8076 115.43 90.8076Z" fill="#006937"/>
<path d="M120.417 94.9167H121.054C121.79 94.9167 122.197 94.5322 122.197 93.5653C122.197 92.7303 121.823 92.3238 121.142 92.3238H120.428V94.9167H120.417ZM118.89 90.9834H121.703C122.944 90.9834 123.702 91.7635 123.702 93.3016C123.702 94.4882 123.307 95.3012 122.45 95.521V95.543C123.482 95.7078 123.647 96.3889 123.658 98.2897C123.669 99.2346 123.713 99.718 123.999 99.9048V99.9817H122.351C122.208 99.729 122.175 99.3884 122.164 99.0368L122.12 97.3118C122.098 96.6087 121.834 96.1802 121.219 96.1802H120.406V99.9817H118.879V90.9944L118.89 90.9834Z" fill="#006937"/>
<path d="M126.437 96.5867H127.92L127.195 92.5435H127.173L126.448 96.5867H126.437ZM126.239 90.9834H128.118L130.117 99.9707H128.535L128.184 98.0699H126.173L125.821 99.9707H124.239L126.239 90.9834Z" fill="#006937"/>
<path d="M134.469 90.9834V92.4666H132.821V99.9707H131.305V92.4666H129.657V90.9834H134.469Z" fill="#006937"/>
<path d="M137.534 98.8171C138.424 98.8171 138.578 97.9052 138.578 95.477C138.578 93.0489 138.435 92.137 137.534 92.137C136.633 92.137 136.49 93.0709 136.49 95.477C136.49 97.8832 136.633 98.8171 137.534 98.8171ZM137.534 90.8076C139.819 90.8076 140.094 92.7413 140.094 95.477C140.094 98.2128 139.808 100.146 137.534 100.146C135.26 100.146 134.963 98.2128 134.963 95.477C134.963 92.7413 135.249 90.8076 137.534 90.8076Z" fill="#006937"/>
<path d="M142.523 94.9167H143.15C143.886 94.9167 144.292 94.5322 144.292 93.5653C144.292 92.7303 143.919 92.3238 143.237 92.3238H142.523V94.9167ZM141.007 90.9834H143.82C145.072 90.9834 145.83 91.7635 145.83 93.3016C145.83 94.4882 145.424 95.3012 144.567 95.521V95.543C145.6 95.7078 145.764 96.3889 145.775 98.2897C145.786 99.2346 145.83 99.718 146.116 99.9048V99.9817H144.468C144.325 99.729 144.281 99.3884 144.27 99.0368L144.237 97.3118C144.215 96.6087 143.952 96.1802 143.336 96.1802H142.523V99.9817H140.996V90.9944L141.007 90.9834Z" fill="#006937"/>
<path d="M148.465 90.9834H146.949V99.9707H148.465V90.9834Z" fill="#006937"/>
<path d="M153.818 90.9834V92.4666H151.115V94.5871H153.653V96.0703H151.115V98.4874H153.916V99.9707H149.599V90.9834H153.818Z" fill="#006937"/>
<path d="M155.904 97.1693V97.433C155.904 98.279 156.102 98.8173 156.904 98.8173C157.366 98.8173 157.816 98.4657 157.816 97.7076C157.816 96.8946 157.465 96.587 156.454 96.1695C155.102 95.6091 154.476 94.9499 154.476 93.4447C154.476 91.6978 155.366 90.7969 156.805 90.7969C158.157 90.7969 159.145 91.4891 159.145 93.214V93.4667H157.695C157.695 92.6207 157.454 92.1263 156.871 92.1263C156.19 92.1263 156.014 92.6427 156.014 93.17C156.014 93.6974 156.146 94.06 156.794 94.3896L157.959 94.9939C159.102 95.5872 159.398 96.2793 159.398 97.378C159.398 99.2788 158.431 100.136 156.783 100.136C155.135 100.136 154.388 99.1799 154.388 97.5209V97.1583H155.915L155.904 97.1693Z" fill="#006937"/>
<path d="M8.92227 115.274L5.97778 106.078H8.25207L9.37274 109.967C9.69136 111.066 9.97702 112.11 10.1858 113.253H10.2297C10.4604 112.154 10.7461 111.055 11.0647 110.011L12.2293 106.078H14.4377L11.3394 115.274H8.91129H8.92227Z" fill="#006937"/>
<path d="M15.4492 106.091V115.287H21.3052V113.573H17.5257V111.397H20.9097V109.695H17.5257V107.794H21.1075V106.091H15.4492Z" fill="#006937"/>
<path d="M22.0293 106.091V107.827H24.5123V115.287H26.5779V107.827H29.0939V106.091H22.0293Z" fill="#006937"/>
<path d="M30.2141 106.091V115.287H36.0701V113.573H32.2906V111.397H35.6746V109.695H32.2906V107.794H35.8724V106.091H30.2141Z" fill="#006937"/>
<path d="M39.5521 110.167H40.3652C41.4089 110.167 42.0132 109.65 42.0132 108.837C42.0132 108.024 41.4419 107.563 40.486 107.563C39.9806 107.563 39.6949 107.596 39.5411 107.629V110.156L39.5521 110.167ZM37.4866 106.222C38.1568 106.102 39.1346 106.014 40.2553 106.014C41.6177 106.014 42.5735 106.222 43.2327 106.75C43.793 107.189 44.0897 107.827 44.0897 108.672C44.0897 109.826 43.2547 110.628 42.4636 110.925V110.958C43.1009 111.221 43.4635 111.815 43.6942 112.661C43.9798 113.715 44.2545 114.913 44.4303 115.265H42.2988C42.156 115.001 41.9253 114.254 41.6726 113.122C41.4199 111.969 41.0244 111.661 40.1564 111.65H39.5411V115.265H37.4866V106.2V106.222Z" fill="#006937"/>
<path d="M47.6612 106.091H45.5957V115.287H47.6612V106.091Z" fill="#006937"/>
<path d="M49.4741 115.274V106.078H51.9022L53.8139 109.451C54.3633 110.418 54.8907 111.572 55.3191 112.604H55.3411C55.2203 111.396 55.1763 110.154 55.1763 108.759V106.089H57.088V115.285H54.9017L52.935 111.736C52.3856 110.737 51.7704 109.572 51.3419 108.484H51.287C51.3529 109.715 51.3858 111.011 51.3858 112.505V115.274H49.4741Z" fill="#006937"/>
<path d="M63.3521 111.365L62.7807 109.409C62.6269 108.86 62.4621 108.167 62.3303 107.64H62.2863C62.1655 108.189 62.0117 108.881 61.8688 109.409L61.3085 111.365H63.3411H63.3521ZM61.0228 112.925L60.3746 115.287H58.2212L61.0338 106.091H63.7586L66.6152 115.287H64.3848L63.6707 112.925H61.0228Z" fill="#006937"/>
<path d="M69.91 110.167H70.723C71.7558 110.167 72.3711 109.65 72.3711 108.837C72.3711 108.024 71.7998 107.563 70.8439 107.563C70.3385 107.563 70.0528 107.596 69.899 107.629V110.156L69.91 110.167ZM67.8445 106.222C68.5147 106.102 69.4925 106.014 70.6132 106.014C71.9756 106.014 72.9314 106.222 73.5906 106.75C74.151 107.189 74.4476 107.827 74.4476 108.672C74.4476 109.826 73.6126 110.628 72.8216 110.925V110.958C73.4588 111.221 73.8104 111.815 74.0411 112.661C74.3268 113.715 74.6014 114.913 74.7772 115.265H72.6458C72.5139 115.001 72.2722 114.254 72.0195 113.122C71.7558 111.969 71.3603 111.661 70.5033 111.65H69.8881V115.265H67.8225V106.2L67.8445 106.222Z" fill="#006937"/>
<path d="M77.809 115.274V111.506L74.9084 106.078H77.2926L78.2155 108.286C78.5012 108.957 78.7099 109.451 78.9297 110.044H78.9516C79.1604 109.473 79.3691 108.946 79.6548 108.286L80.5777 106.078H82.9179L79.8855 111.44V115.274H77.809Z" fill="#006937"/>
<path d="M86.7422 113.154C87.2915 113.44 88.1595 113.726 89.0495 113.726C90.0053 113.726 90.5107 113.33 90.5107 112.715C90.5107 112.154 90.0712 111.814 88.9725 111.429C87.4454 110.88 86.4346 110.045 86.4346 108.683C86.4346 107.111 87.764 105.925 89.9064 105.925C90.9612 105.925 91.7083 106.134 92.2576 106.397L91.7962 108.056C91.4446 107.88 90.7744 107.617 89.8845 107.617C88.9945 107.617 88.555 108.045 88.555 108.507C88.555 109.089 89.0604 109.353 90.258 109.814C91.8841 110.407 92.6312 111.264 92.6312 112.561C92.6312 114.11 91.4556 115.417 88.9396 115.417C87.8848 115.417 86.8521 115.132 86.3357 114.846L86.7642 113.143L86.7422 113.154Z" fill="#006937"/>
<path d="M100.784 115.035C100.422 115.21 99.5428 115.43 98.4441 115.43C95.2689 115.43 93.6318 113.442 93.6318 110.805C93.6318 107.662 95.8732 105.938 98.6528 105.938C99.7296 105.938 100.543 106.157 100.916 106.355L100.477 107.992C100.059 107.816 99.4769 107.651 98.7298 107.651C97.0927 107.651 95.8072 108.651 95.8072 110.706C95.8072 112.552 96.8949 113.705 98.7407 113.705C99.378 113.705 100.07 113.584 100.488 113.409L100.784 115.046V115.035Z" fill="#006937"/>
<path d="M104.245 106.091H102.179V115.287H104.245V106.091Z" fill="#006937"/>
<path d="M106.055 106.091V115.287H111.911V113.573H108.132V111.397H111.527V109.695H108.132V107.794H111.725V106.091H106.055Z" fill="#006937"/>
<path d="M113.342 115.274V106.078H115.77L117.682 109.451C118.22 110.418 118.758 111.572 119.187 112.604H119.209C119.088 111.396 119.044 110.154 119.044 108.759V106.089H120.956V115.285H118.769L116.803 111.736C116.253 110.737 115.649 109.572 115.21 108.484H115.155C115.221 109.715 115.254 111.011 115.254 112.505V115.274H113.342Z" fill="#006937"/>
<path d="M129.491 115.035C129.117 115.21 128.249 115.43 127.15 115.43C123.975 115.43 122.327 113.442 122.327 110.805C122.327 107.662 124.568 105.938 127.348 105.938C128.425 105.938 129.238 106.157 129.611 106.355L129.172 107.992C128.765 107.816 128.183 107.651 127.425 107.651C125.788 107.651 124.503 108.651 124.503 110.706C124.503 112.552 125.59 113.705 127.425 113.705C128.062 113.705 128.754 113.584 129.172 113.409L129.469 115.046L129.491 115.035Z" fill="#006937"/>
<path d="M130.887 106.091V115.287H136.743V113.573H132.964V111.397H136.348V109.695H132.964V107.794H136.556V106.091H130.887Z" fill="#006937"/>
<path d="M138.238 113.154C138.787 113.44 139.655 113.726 140.545 113.726C141.501 113.726 142.006 113.33 142.006 112.715C142.006 112.154 141.567 111.814 140.468 111.429C138.941 110.88 137.93 110.045 137.93 108.683C137.93 107.111 139.26 105.925 141.413 105.925C142.457 105.925 143.215 106.134 143.753 106.397L143.292 108.056C142.94 107.88 142.27 107.617 141.38 107.617C140.49 107.617 140.051 108.045 140.051 108.507C140.051 109.089 140.556 109.353 141.754 109.814C143.38 110.407 144.127 111.264 144.127 112.561C144.127 114.11 142.951 115.417 140.424 115.417C139.369 115.417 138.337 115.132 137.82 114.846L138.238 113.143V113.154Z" fill="#006937"/>
<path d="M144.654 116.902C145.093 115.693 145.456 114.265 145.643 113.034L147.763 112.892C147.313 114.287 146.697 115.715 146.049 116.781L144.654 116.902Z" fill="#006937"/>
<path d="M153.126 106.091H151.061V115.287H153.126V106.091Z" fill="#006937"/>
<path d="M154.926 115.274V106.078H157.354L159.266 109.451C159.815 110.418 160.342 111.572 160.771 112.604H160.793C160.672 111.396 160.639 110.154 160.639 108.759V106.089H162.551V115.285H160.364L158.398 111.736C157.848 110.737 157.233 109.572 156.805 108.484H156.75C156.816 109.715 156.848 111.011 156.848 112.505V115.274H154.937H154.926Z" fill="#006937"/>
<path d="M171.087 115.035C170.725 115.21 169.846 115.43 168.747 115.43C165.561 115.43 163.924 113.442 163.924 110.805C163.924 107.662 166.165 105.938 168.945 105.938C170.022 105.938 170.846 106.157 171.208 106.355L170.769 107.992C170.362 107.816 169.78 107.651 169.022 107.651C167.385 107.651 166.099 108.651 166.099 110.706C166.099 112.552 167.198 113.705 169.033 113.705C169.681 113.705 170.362 113.584 170.78 113.409L171.076 115.046L171.087 115.035Z" fill="#006937"/>
<path d="M173.451 115.429C172.759 115.429 172.253 114.902 172.253 114.177C172.253 113.452 172.759 112.902 173.473 112.902C174.187 112.902 174.671 113.408 174.693 114.177C174.693 114.902 174.198 115.429 173.462 115.429H173.451Z" fill="#006937"/>
<path d="M184.954 61.1098H185.295C185.69 61.1098 186.009 60.9669 186.009 60.6044C186.009 60.3407 185.822 60.088 185.295 60.088C185.141 60.088 185.031 60.088 184.954 60.1099V61.1098ZM184.954 62.7468H184.482V59.7913C184.723 59.7584 184.965 59.7254 185.317 59.7254C185.756 59.7254 186.053 59.8243 186.228 59.9451C186.404 60.077 186.503 60.2747 186.503 60.5604C186.503 60.945 186.239 61.1867 185.932 61.2746V61.2965C186.185 61.3405 186.36 61.5822 186.426 62.0107C186.503 62.4721 186.569 62.6479 186.613 62.7468H186.119C186.042 62.6479 185.976 62.3842 185.91 61.9887C185.844 61.6152 185.657 61.4723 185.273 61.4723H184.943V62.7468H184.954ZM185.448 58.9673C184.284 58.9673 183.328 59.9671 183.328 61.1976C183.328 62.4282 184.284 63.439 185.459 63.439C186.635 63.45 187.58 62.4502 187.58 61.2086C187.58 59.9671 186.635 58.9673 185.459 58.9673H185.448ZM185.47 58.5498C186.921 58.5498 188.074 59.7254 188.074 61.1976C188.074 62.6699 186.921 63.8565 185.459 63.8565C183.998 63.8565 182.833 62.6919 182.833 61.1976C182.833 59.7034 184.02 58.5498 185.459 58.5498H185.47Z" fill="#006937"/>
<path d="M140.973 47.473H141.852C134.942 38.3539 125.372 31.0036 113.133 26.8066C113.133 26.9165 113.166 27.0264 113.166 27.1253C113.166 27.2571 113.133 27.3889 113.122 27.5208C124.932 31.6079 134.205 38.6835 140.973 47.462V47.473Z" fill="#006937"/>
<path d="M143.654 126.513C136.743 137.016 126.581 145.542 113.122 150.2C113.122 150.332 113.155 150.453 113.155 150.585C113.155 150.695 113.133 150.805 113.122 150.926C126.998 146.179 137.447 137.368 144.467 126.513H143.654Z" fill="#006937"/>
</svg>
